<svg xmlns="http://www.w3.org/2000/svg" version="1.1" viewBox="0 0 290 60">
  <title>Vaultwarden</title>
  <path class="tw-fill-text-headers" id="vaultwarden" d="m12.1 10.6 15.1 42.2h5.33l15.1-42.2h-5.56l-9.51 27.1c-0.63 1.73-1.16 3.37-1.6 4.9-0.435 1.5-0.79 2.94-1.07 4.32-0.28-1.38-0.63-2.83-1.07-4.37-0.435-1.54-0.964-3.2-1.6-4.96l-9.45-27.1zm104 2.62v32.4h6.35v-32.4zm121 0v9.28l0.08 1.6 0.15 1.64h-0.27c-1.65-2.24-4.03-3.37-7.1-3.37-2.96 0-5.28 1.04-6.93 3.11-1.66 2.08-2.49 5.01-2.49 8.74 0 3.74 0.82 6.64 2.47 8.68 1.66 2.04 3.98 3.07 6.96 3.07 3.17 0 5.56-1.16 7.15-3.47h0.19l0.46 3.07h2.81v-32.4zm-105 4.15-1.83 4.9-3.49 2.12v2.68h3.05v11.2c0 2.56 0.575 4.49 1.73 5.77 1.17 1.28 3.02 1.91 5.56 1.91 2.3 0 4.24-0.35 5.82-1.06v-4.73c-1.55 0.49-2.88 0.73-4 0.73-0.83 0-1.5-0.215-2.02-0.645-0.5-0.43-0.75-1.09-0.75-2v-11.2h6.52v-4.77h-6.52v-4.94zm-60.3 4.47c-3.26 0-6.22 0.7-8.89 2.1l2.1 4.28c2.51-1.12 4.69-1.68 6.56-1.68 2.41 0 3.62 1.18 3.62 3.54v1.02l-4.03 0.125c-3.47 0.125-6.09 0.78-7.81 1.96-1.72 1.17-2.58 2.98-2.58 5.45 0 2.36 0.64 4.17 1.91 5.45 1.29 1.28 3.05 1.91 5.28 1.91 1.82 0 3.28-0.26 4.41-0.77 1.14-0.53 2.24-1.46 3.3-2.81h0.17l1.23 3.15h4.43v-15.5c0-2.77-0.83-4.84-2.49-6.2-1.66-1.36-4.05-2.04-7.17-2.04zm16.1 0.48v15.2c0 2.75 0.69 4.86 2.08 6.33 1.39 1.46 3.45 2.19 6.18 2.19 1.6 0 3.02-0.29 4.26-0.87 1.25-0.6 2.22-1.44 2.9-2.51h0.33l0.85 2.98h4.88v-23.2h-6.35v10.9c0 2.75-0.4 4.71-1.19 5.9-0.79 1.18-2.07 1.77-3.86 1.77-1.3 0-2.26-0.415-2.85-1.25-0.6-0.845-0.89-2.11-0.89-3.79v-13.6zm127 0.0415c-1.43 0-2.75 0.4-3.94 1.21-1.19 0.8-2.22 1.95-3.07 3.43h-0.17l-0.4-4.22h-2.85v22.8h3.45v-12.2c0-2.24 0.65-4.09 1.96-5.6 1.32-1.5 2.9-2.24 4.75-2.24 0.72 0 1.55 0.104 2.49 0.31l0.48-3.2c-0.8-0.17-1.71-0.25-2.73-0.25zm40.9 0c-3.05 0-5.47 1.08-7.3 3.24-1.8 2.17-2.71 5.09-2.71 8.74 0 3.64 0.97 6.5 2.92 8.53 1.96 2.05 4.62 3.09 7.98 3.09 1.54 0 2.85-0.12 3.94-0.35 1.09-0.22 2.26-0.6 3.47-1.12v-3.09c-2.41 1.03-4.84 1.54-7.27 1.54-2.32 0-4.13-0.69-5.43-2.08-1.28-1.39-1.95-3.41-2.02-6.09h15.7v-2.19c0-3.09-0.83-5.56-2.49-7.42-1.66-1.89-3.92-2.83-6.76-2.83zm26 0c-1.57 0-2.98 0.31-4.26 0.93-1.28 0.61-2.26 1.48-2.98 2.6h-0.17l-0.56-3.11h-2.81v22.8h3.45v-12c0-2.96 0.55-5.09 1.66-6.39 1.11-1.29 2.85-1.93 5.24-1.93 1.8 0 3.13 0.46 3.98 1.37 0.845 0.915 1.27 2.3 1.27 4.15v14.7h3.45v-14.9c0-2.92-0.69-5.03-2.08-6.35-1.39-1.33-3.45-2-6.2-2zm-92.3 0.0415c-1.35 0-2.68 0.17-4.03 0.52-1.33 0.35-2.56 0.82-3.69 1.44l1.06 2.64c2.41-1.17 4.56-1.75 6.45-1.75 1.69 0 2.92 0.43 3.69 1.29 0.78 0.845 1.17 2.17 1.17 3.96v1.41l-3.88 0.125c-7.36 0.22-11.1 2.64-11.1 7.23 0 2.15 0.64 3.81 1.91 4.96 1.29 1.17 3.07 1.75 5.33 1.75 1.69 0 3.11-0.25 4.22-0.75 1.14-0.51 2.28-1.48 3.41-2.92h0.17l0.685 3.24h2.56v-15.5c0-2.66-0.66-4.6-1.98-5.79-1.3-1.21-3.32-1.81-6.03-1.81zm-44.9 0.375 6.22 22.8h4l4.3-13.3c0.415-1.32 0.9-3.2 1.46-5.62h0.17c0.72 2.9 1.21 4.75 1.48 5.58l4.17 13.4h4.09l6.31-22.8h-3.58c-2.64 10.2-4.09 15.7-4.35 16.8-0.24 1.04-0.38 1.81-0.44 2.3h-0.17c-0.28-1.62-0.8-3.62-1.58-6.01l-4.07-13.1h-3.75l-4.17 13.1c-0.25 0.73-0.55 1.73-0.89 3-0.33 1.25-0.575 2.26-0.73 3.07h-0.17c-0.11-1.04-0.55-3.07-1.33-6.05-0.762-3-1.88-7.34-3.34-13.1zm85.1 2.47c2.36 0 4.07 0.69 5.13 2.08 1.08 1.37 1.62 3.69 1.62 6.89v0.73c0 2.85-0.535 4.92-1.6 6.22-1.05 1.28-2.77 1.91-5.11 1.91-2.07 0-3.64-0.74-4.71-2.22-1.07-1.48-1.6-3.69-1.6-6.59 0-2.88 0.535-5.09 1.6-6.64 1.08-1.58 2.64-2.36 4.66-2.36zm26.2 0c1.8 0 3.2 0.58 4.15 1.75 0.97 1.15 1.46 2.81 1.46 4.98h-11.9c0.19-2.11 0.83-3.75 1.91-4.94 1.09-1.19 2.56-1.79 4.39-1.79zm-62 9.11v2.06c0 2.12-0.62 3.77-1.85 4.94-1.22 1.18-2.9 1.77-5.05 1.77-1.36 0-2.43-0.33-3.17-0.98-0.75-0.65-1.12-1.6-1.12-2.85 0-1.6 0.603-2.77 1.81-3.51 1.22-0.762 3.2-1.19 5.94-1.29zm-119 0.44v1.91c0 1.4-0.44 2.51-1.33 3.37-0.87 0.845-2.04 1.27-3.51 1.27-2.05 0-3.09-0.89-3.09-2.68 0-1.25 0.45-2.17 1.35-2.79 0.9-0.61 2.28-0.94 4.11-1z" fill="#ffffff"/>
  <path class="tw-fill-text-headers" id="gear" d="m29.7 6.93e-7a0.85 0.85 0 0 0-0.73 0.415l-1.52 2.53c-0.27 0.02-0.53 0.05-0.8 0.08l-1.98-2.19a0.85 0.85 0 0 0-0.8-0.264 0.85 0.85 0 0 0-0.64 0.55l-0.99 2.77c-0.26 0.07-0.515 0.15-0.77 0.23l-2.36-1.76a0.85 0.85 0 0 0-0.83-0.104 0.85 0.85 0 0 0-0.52 0.664l-0.44 2.92c-0.23 0.12-0.47 0.24-0.7 0.37l-2.68-1.26a0.85 0.85 0 0 0-0.57-0.0554 0.85 0.85 0 0 0-0.645 0.87l0.14 2.96c-0.203 0.162-0.4 0.33-0.6 0.49l-2.88-0.72a0.85 0.85 0 0 0-1.04 1.04l0.72 2.88c-0.17 0.2-0.33 0.4-0.49 0.6l-2.96-0.14a0.85 0.85 0 0 0-0.81 1.22l1.26 2.68c-0.13 0.23-0.25 0.464-0.37 0.7l-2.92 0.44a0.85 0.85 0 0 0-0.56 1.35l1.76 2.36c-0.08 0.25-0.16 0.51-0.23 0.77l-2.77 0.99a0.85 0.85 0 0 0-0.285 1.44l2.19 1.98c-0.03 0.264-0.05 0.53-0.08 0.8l-2.53 1.52a0.85 0.85 0 0 0 2.9e-7 1.47l2.53 1.52c0.02 0.27 0.0458 0.53 0.08 0.8l-2.19 1.98a0.85 0.85 0 0 0 0.285 1.44l2.77 0.99c0.07 0.26 0.15 0.515 0.23 0.77l-1.76 2.36a0.85 0.85 0 0 0 0.56 1.35l2.92 0.44c0.12 0.23 0.24 0.47 0.37 0.7l-1.26 2.68a0.85 0.85 0 0 0 0.81 1.22l2.96-0.14c0.162 0.203 0.33 0.4 0.49 0.6l-0.72 2.88a0.85 0.85 0 0 0 1.04 1.04l2.88-0.72c0.2 0.17 0.4 0.33 0.6 0.49l-0.14 2.96a0.85 0.85 0 0 0 1.22 0.81l2.68-1.26c0.23 0.13 0.462 0.25 0.7 0.37l0.44 2.92a0.85 0.85 0 0 0 1.35 0.56l2.36-1.76c0.25 0.08 0.51 0.16 0.77 0.23l0.99 2.77a0.85 0.85 0 0 0 1.44 0.285l1.98-2.19c0.264 0.03 0.53 0.05 0.8 0.08l1.52 2.53a0.85 0.85 0 0 0 1.47 0l1.52-2.53c0.27-0.02 0.53-0.0458 0.8-0.08l1.98 2.19a0.85 0.85 0 0 0 1.44-0.285l0.99-2.77c0.26-0.07 0.515-0.15 0.77-0.23l2.36 1.76a0.85 0.85 0 0 0 1.35-0.56l0.44-2.92c0.23-0.12 0.47-0.24 0.7-0.37l2.68 1.26a0.85 0.85 0 0 0 1.22-0.81l-0.14-2.96c0.203-0.162 0.4-0.33 0.6-0.49l2.88 0.72a0.85 0.85 0 0 0 1.04-1.04l-0.72-2.88c0.17-0.2 0.33-0.4 0.49-0.6l2.96 0.14a0.85 0.85 0 0 0 0.81-1.22l-1.26-2.68c0.13-0.23 0.25-0.464 0.37-0.7l2.92-0.44a0.85 0.85 0 0 0 0.56-1.35l-1.76-2.36c0.08-0.25 0.16-0.51 0.23-0.77l2.77-0.99a0.85 0.85 0 0 0 0.285-1.44l-2.19-1.98c0.03-0.264 0.05-0.53 0.08-0.8l2.53-1.52a0.85 0.85 0 0 0-3e-6 -1.47l-2.53-1.52c-0.02-0.27-0.05-0.53-0.08-0.8l2.19-1.98a0.85 0.85 0 0 0-0.29-1.44l-2.77-0.99c-0.07-0.26-0.15-0.52-0.23-0.77l1.76-2.36a0.85 0.85 0 0 0-0.56-1.35l-2.9-0.44c-0.12-0.23-0.24-0.47-0.37-0.7l1.26-2.68a0.85 0.85 0 0 0-0.81-1.22l-2.96 0.14c-0.16-0.2-0.37-0.4-0.49-0.6l0.72-2.88a0.85 0.85 0 0 0-1.04-1.04l-2.88 0.72c-0.2-0.17-0.4-0.33-0.6-0.49l0.14-2.96a0.85 0.85 0 0 0-1.22-0.81l-2.68 1.26c-0.23-0.13-0.464-0.25-0.7-0.37l-0.44-2.92a0.85 0.85 0 0 0-0.52-0.66 0.85 0.85 0 0 0-0.83 0.1l-2.36 1.76c-0.25-0.08-0.51-0.16-0.77-0.23l-0.99-2.77a0.85 0.85 0 0 0-0.64-0.55 0.85 0.85 0 0 0-0.8 0.264l-1.98 2.19c-0.26-0.03-0.53-0.05-0.8-0.08l-1.52-2.53a0.85 0.85 0 0 0-0.73-0.42zm0 5.41a1.7 1.7 0 0 1 1.7 1.7 1.7 1.7 0 0 1-1.7 1.7 1.7 1.7 0 0 1-1.7-1.7 1.7 1.7 0 0 1 1.7-1.7zm-4.03 2.94 2.83 2.83a1.7 1.7 0 0 0 2.41 0l2.83-2.83c6.57 1.22 12.1 5.35 15.2 11l-1.82 3.58a1.7 1.7 0 0 0 0.75 2.3l3.56 1.81c0.12 0.92 0.19 1.86 0.19 2.81 0 5.84-2.28 11.1-6 15.1l-3.96-0.63a1.7 1.7 0 0 0-1.95 1.42l-0.63 3.96c-2.85 1.35-6.03 2.1-9.38 2.1-3.37 0-6.54-0.75-9.38-2.1l-0.63-3.96a1.7 1.7 0 0 0-1.95-1.42l-3.96 0.62c-3.7-3.92-5.99-9.19-6-15.1-1.9e-6 -0.955 0.07-1.9 0.19-2.8l3.56-1.8a1.7 1.7 0 0 0 0.745-2.3l-1.8-3.58c3.09-5.67 8.62-9.81 15.2-11zm-17.6 12.8a1.71 1.7 0 0 1 0.48 0.08 1.7 1.7 0 0 1 1.1 2.15 1.7 1.7 0 0 1-2.15 1.1 1.7 1.7 0 0 1-1.1-2.15 1.7 1.7 0 0 1 1.67-1.18zm43.2 1e-6a1.7 1.7 0 0 1 1.67 1.18 1.7 1.7 0 0 1-1.09 2.15 1.7 1.7 0 0 1-2.15-1.1 1.7 1.7 0 0 1 1.09-2.15 1.7 1.7 0 0 1 0.48-0.08zm-34.9 25.3a1.7 1.7 0 0 1 0.9 0.32 1.7 1.7 0 0 1 0.38 2.39 1.7 1.7 0 0 1-2.39 0.38 1.7 1.7 0 0 1-0.38-2.39 1.7 1.7 0 0 1 1.48-0.7zm26.6 0a1.7 1.7 0 0 1 1.48 0.7 1.7 1.7 0 0 1-0.38 2.39 1.7 1.7 0 0 1-2.39-0.38 1.7 1.7 0 0 1 0.38-2.39 1.7 1.7 0 0 1 0.9-0.32z" fill="#ffffff"/>
</svg>